<svg xmlns="http://www.w3.org/2000/svg" version="1.1" id="Layer_1" xmlns:v="https://vecta.io/nano" viewBox="0 0 335.351 148" width="335.351" height="148"><rect width="335.351" height="148" rx="13" ry="13" fill="#ef4741"></rect><g>
    <path d="M39.174,116.656v-15.799c15.044,2.303,25.31,3.451,30.798,3.451,11.504,0,17.258-2.963,17.258-8.893v-5.576c0-2.832-.819-5-2.456-6.506-1.639-1.504-4.58-2.256-8.828-2.256h-10.089c-18.939,0-28.409-7.521-28.409-22.568v-6.371c0-7.521,3.141-13.053,9.425-16.594,6.283-3.539,16.239-5.311,29.869-5.311,7.079,0,16.063.576,26.948,1.727v15.398c-13.364-1.594-22.567-2.39-27.612-2.39-6.993,0-11.682.577-14.072,1.726-2.568,1.24-3.85,3.187-3.85,5.842v6.105c0,4.514,3.804,6.771,11.417,6.771h10.354c9.824,0,16.946,1.814,21.373,5.442,4.424,3.63,6.637,9.159,6.637,16.593v5.709c0,10.268-3.673,17.215-11.018,20.842-3.541,1.859-7.457,3.166-11.749,3.916-4.294.752-9.448,1.129-15.465,1.129-8.231,0-18.409-.797-30.533-2.389Z" fill="#fff" opacity=".5"></path>
    <path d="M122.274,31.562h36.639c10.089,0,18.054.775,23.896,2.322,5.841,1.55,10.132,4.228,12.876,8.031,2.742,3.807,4.115,9.073,4.115,15.798v35.046c0,6.551-1.284,11.615-3.85,15.201-2.568,3.584-6.771,6.105-12.611,7.566-5.841,1.459-13.939,2.189-24.293,2.189h-36.772V31.562ZM158.117,102.982c5.663,0,9.934-.242,12.811-.73,2.875-.486,4.955-1.438,6.239-2.854,1.282-1.416,1.925-3.629,1.925-6.639v-35.443c0-4.07-1.616-6.924-4.845-8.562-3.232-1.637-8.386-2.457-15.466-2.457h-15.797v56.686h15.134Z" fill="#fff"></path>
    <path d="M216.526,31.562h20.709v86.154h-20.709V31.562ZM237.767,72.051l32.257-40.488h24.295l-32.658,40.09,36.242,46.064h-25.223l-34.914-45.666Z" fill="#fff" opacity=".5"></path>
  </g></svg>