<svg xmlns="http://www.w3.org/2000/svg" version="1.1" xmlns:xlink="http://www.w3.org/1999/xlink" width="800" height="443"><svg xmlns="http://www.w3.org/2000/svg" version="1.1" xmlns:xlink="http://www.w3.org/1999/xlink" width="800" height="443"><svg id="Layer_1" xmlns="http://www.w3.org/2000/svg" version="1.1" viewBox="0 0 800 443">
  <!-- Generator: Adobe Illustrator 29.8.2, SVG Export Plug-In . SVG Version: 2.1.1 Build 3)  -->
  <defs>
    <style>
      .st0 {
        fill: #35495e;
      }

      .st1 {
        fill: #ef4741;
      }

      .st2 {
        fill: #41b883;
      }
    </style>
  </defs>
  <path class="st1" d="M174.18,0H0v433h194c73.17,0,194-6.68,194-131.35v-170.11C388,6.68,247.74,0,174.19,0h-.01ZM283.56,290.19c0,62.43-45.35,68.73-97,68.73h-83.47V74.08h64.03c51.64,0,117.01,6.3,117.01,68.73l-.57,147.39h0Z"></path>
  <g>
    <path class="st2" d="M308,0l246,443L800,0h-96.64l-149.36,267.65L404.64,0h-96.64Z"></path>
    <path class="st0" d="M404.64,0l149.36,267.65L703.36,0h-87.86l-60.35,110.98L492.5,0h-87.86Z"></path>
  </g>
</svg></svg><style>@media (prefers-color-scheme: light) { :root { filter: none; } }
@media (prefers-color-scheme: dark) { :root { filter: none; } }
</style></svg>